<svg width="184" height="29" viewBox="0 0 184 29" fill="none" xmlns="http://www.w3.org/2000/svg">
<path d="M41.978 5.02734C39.6258 5.02734 37.5054 5.98517 35.9636 7.52424C34.4246 9.06332 31.3164 13.5359 31.3164 13.5359C31.3164 13.5359 34.4246 18.0085 35.9636 19.5476C37.5027 21.0866 39.623 22.0445 41.978 22.0445C46.6853 22.0445 50.4893 18.2405 50.4893 13.5359C50.4893 8.83137 46.6826 5.02734 41.978 5.02734ZM41.978 18.4151C40.6409 18.4151 39.3911 17.8639 38.5206 16.9934C37.6501 16.1229 35.7617 13.5386 35.7617 13.5386C35.7617 13.5386 37.6501 10.9544 38.5206 10.0839C39.3911 9.2134 40.6409 8.66218 41.978 8.66218C44.6796 8.66218 46.8572 10.8398 46.8572 13.5414C46.8572 16.2429 44.6769 18.4206 41.978 18.4206V18.4151Z" fill="url(#paint0_linear_1_347)"/>
<path d="M16.4961 13.5056C16.4961 18.2102 20.3028 22.0142 25.0074 22.0142C27.3597 22.0142 29.48 21.0564 31.0218 19.5173C32.5609 17.9782 35.669 13.5056 35.669 13.5056C35.669 13.5056 32.5609 9.03304 31.0218 7.49397C29.4827 5.9549 27.3624 4.99707 25.0074 4.99707C20.3001 4.99707 16.4961 8.80109 16.4961 13.5056ZM20.0982 13.5056C20.0982 10.8041 22.2758 8.62645 24.9774 8.62645C26.3145 8.62645 27.5343 9.17767 28.4348 10.0482C29.3927 10.9787 31.2537 13.4756 31.2537 13.4756C31.2537 13.4756 29.3081 16.0899 28.4348 16.9604C27.5643 17.8309 26.3145 18.3821 24.9774 18.3821C22.2758 18.3821 20.0982 16.2045 20.0982 13.5029V13.5056Z" fill="url(#paint1_linear_1_347)"/>
<path d="M46.7985 18.6466C44.0096 19.8664 41.046 19.4899 38.5191 16.9902C36.4561 14.9272 33.6099 10.078 31.053 7.52383C30.9656 7.43651 30.8783 7.3792 30.821 7.29188C28.5834 5.22886 25.3306 4.35836 21.9604 5.54814C18.6203 6.73792 16.5 10.078 16.5 13.5355C16.5573 11.5598 17.9245 9.38218 20.1894 8.39433C22.9783 7.17454 25.9418 7.55112 28.4687 10.0507C30.7337 12.3157 33.4653 16.9902 35.9922 19.5171C38.2299 21.7521 41.57 22.6826 45.0547 21.4328C48.3948 20.243 50.5152 16.9602 50.5152 13.4755C50.4578 15.4511 49.0907 17.6288 46.8257 18.6166L46.7957 18.6466H46.7985Z" fill="url(#paint2_linear_1_347)"/>
<path d="M13.8536 12.9544C14.5495 13.8549 14.8988 14.8701 14.8988 16.0026C14.8988 17.0477 14.6368 17.9482 14.1429 18.7314C13.649 19.5146 12.8931 20.1259 11.9352 20.5898C10.9774 21.0264 9.84494 21.2583 8.53509 21.2583H0.201172V1.91895H8.19125C9.49837 1.91895 10.6308 2.12088 11.5914 2.5575C12.5492 2.99411 13.2751 3.57263 13.7417 4.32852C14.2056 5.08441 14.4676 5.95492 14.4676 6.91275C14.4676 8.04522 14.1784 8.97576 13.5671 9.72892C12.9558 10.4848 12.1727 11.036 11.1548 11.3253C12.26 11.5272 13.1305 12.0812 13.8564 12.9517L13.8536 12.9544ZM4.0625 9.87628H7.60728C8.53782 9.87628 9.23368 9.67435 9.7276 9.26775C10.2215 8.86115 10.4835 8.25261 10.4835 7.4667C10.4835 6.68079 10.2215 6.10228 9.7276 5.66566C9.23368 5.22904 8.5078 5.02711 7.60728 5.02711H4.0625V9.87628ZM10.1915 17.427C10.7154 16.9904 10.9747 16.3518 10.9747 15.5387C10.9747 14.7255 10.6854 14.0569 10.1315 13.593C9.58024 13.1291 8.82435 12.8971 7.89381 12.8971H4.05977V18.0956H7.98113C8.91167 18.0956 9.66483 17.8636 10.1888 17.427H10.1915Z" fill="white"/>
<path d="M76.9827 7.40697C78.1452 8.56946 78.7264 10.1658 78.7264 12.2561V21.2586H74.8351V12.7801C74.8351 11.5903 74.5458 10.6598 73.9346 10.0212C73.3233 9.38266 72.4828 9.06338 71.4376 9.06338C70.3925 9.06338 69.5493 9.38266 68.938 10.0212C68.3268 10.6598 68.0075 11.5903 68.0075 12.7801V21.2586H64.1134V12.7801C64.1134 11.5903 63.7941 10.6598 63.2129 10.0212C62.6016 9.38266 61.7611 9.06338 60.716 9.06338C59.6708 9.06338 58.7976 9.38266 58.1891 10.0212C57.5778 10.6598 57.2585 11.5903 57.2585 12.7801V21.2586H53.3672V5.89791H57.2585V7.75626C57.7525 7.11771 58.391 6.59377 59.1769 6.21719C59.9601 5.84061 60.8333 5.66596 61.7611 5.66596C62.9536 5.66596 64.0261 5.92793 64.9866 6.42185C65.9445 6.94579 66.6731 7.64165 67.1643 8.59948C67.6582 7.69896 68.3841 7.0031 69.3446 6.45187C70.3025 5.92793 71.3203 5.63867 72.4228 5.63867C74.3111 5.63867 75.8229 6.21992 76.9827 7.38241V7.41243V7.40697Z" fill="white"/>
<path d="M96.5907 14.7256H85.3479C85.4352 15.828 85.8118 16.7012 86.5104 17.3398C87.2062 17.9783 88.0494 18.2703 89.0373 18.2703C90.489 18.2703 91.5069 17.6618 92.1154 16.412H96.2988C95.8621 17.8937 94.9916 19.1135 93.7418 20.0714C92.492 21.0292 90.9529 21.4931 89.1219 21.4931C87.6401 21.4931 86.303 21.1738 85.1432 20.5053C83.9534 19.8367 83.0529 18.9089 82.3843 17.7164C81.7158 16.5266 81.3965 15.1322 81.3965 13.5631C81.3965 11.994 81.7158 10.5722 82.3543 9.38246C82.9929 8.19268 83.8934 7.26214 85.0859 6.59357C86.2757 5.925 87.5828 5.63574 89.0946 5.63574C90.6064 5.63574 91.8535 5.95502 93.0159 6.59357C94.1784 7.23212 95.079 8.10262 95.7175 9.26512C96.3561 10.4276 96.6753 11.7347 96.6753 13.2438C96.6753 13.795 96.6453 14.2889 96.558 14.7256H96.588H96.5907ZM92.6694 12.1113C92.6694 11.1235 92.2928 10.3103 91.5942 9.70173C90.8984 9.0932 90.0251 8.80121 89.0073 8.80121C88.0494 8.80121 87.2362 9.09047 86.595 9.67172C85.9264 10.253 85.5498 11.0662 85.3752 12.0813H92.6667V12.1113H92.6694Z" fill="white"/>
<path d="M105.364 6.36187C106.177 5.89797 107.078 5.66602 108.123 5.66602V9.73201H107.105C105.885 9.73201 104.955 10.0213 104.346 10.6025C103.735 11.1838 103.416 12.1716 103.416 13.5933V21.2587H99.5215V5.89797H103.416V8.28026C103.909 7.46706 104.578 6.82851 105.361 6.3646L105.364 6.36187Z" fill="white"/>
<path d="M110.65 9.38246C111.261 8.19268 112.102 7.26214 113.177 6.59357C114.252 5.95502 115.415 5.63574 116.749 5.63574C117.882 5.63574 118.899 5.86769 119.77 6.3316C120.64 6.7955 121.309 7.37675 121.833 8.07534V5.89771H125.754V21.2612H121.833V19.0262C121.339 19.7521 120.643 20.3333 119.77 20.8273C118.899 21.2912 117.882 21.5231 116.719 21.5231C115.412 21.5231 114.249 21.2039 113.174 20.5353C112.099 19.8667 111.256 18.9389 110.647 17.7191C110.036 16.4993 109.717 15.1049 109.717 13.5385C109.717 11.9721 110.036 10.605 110.647 9.4152V9.38519L110.65 9.38246ZM121.254 11.1535C120.878 10.4849 120.384 9.9637 119.743 9.61441C119.104 9.26512 118.435 9.06318 117.71 9.06318C116.984 9.06318 116.315 9.23783 115.704 9.58712C115.093 9.93641 114.599 10.4576 114.222 11.1262C113.846 11.7948 113.641 12.608 113.641 13.5358C113.641 14.4636 113.843 15.2795 114.222 15.9453C114.599 16.6412 115.093 17.1651 115.734 17.5417C116.345 17.9183 117.011 18.093 117.71 18.093C118.408 18.093 119.104 17.9183 119.743 17.5417C120.381 17.1924 120.875 16.6712 121.254 16.0027C121.631 15.3341 121.806 14.5209 121.806 13.5631C121.806 12.6052 121.631 11.8193 121.254 11.1535Z" fill="white"/>
<path d="M142.491 7.40682C143.623 8.56931 144.174 10.1657 144.174 12.256V21.2585H140.28V12.7799C140.28 11.5601 139.961 10.6323 139.38 9.96376C138.768 9.29519 137.928 8.97591 136.883 8.97591C135.838 8.97591 134.964 9.29519 134.356 9.96376C133.745 10.6323 133.425 11.5601 133.425 12.7799V21.2585H129.531V5.89777H133.425V7.81342C133.949 7.14485 134.615 6.62364 135.401 6.24433C136.187 5.86775 137.087 5.66309 138.045 5.66309C139.876 5.66309 141.358 6.24433 142.491 7.40682Z" fill="white"/>
<path d="M156.899 6.30385C157.77 6.76775 158.438 7.349 158.962 8.07487V5.89725H162.884V21.3753C162.884 22.797 162.592 24.0769 162.013 25.1793C161.432 26.2818 160.589 27.1823 159.429 27.8509C158.266 28.5194 156.902 28.8387 155.276 28.8387C153.098 28.8387 151.297 28.3148 149.902 27.2996C148.508 26.2845 147.725 24.8901 147.52 23.1463H151.384C151.586 23.8422 152.023 24.3961 152.691 24.83C153.36 25.2666 154.173 25.4686 155.161 25.4686C156.293 25.4686 157.194 25.1193 157.893 24.4535C158.588 23.7849 158.938 22.7697 158.938 21.4053V19.023C158.444 19.7489 157.748 20.3602 156.875 20.8241C156.004 21.318 154.986 21.55 153.854 21.55C152.547 21.55 151.384 21.2307 150.309 20.5621C149.234 19.8935 148.391 18.9657 147.782 17.7459C147.171 16.5261 146.852 15.1317 146.852 13.5653C146.852 11.999 147.171 10.6318 147.782 9.44203C148.393 8.25225 149.234 7.32171 150.309 6.65314C151.384 6.01459 152.547 5.69531 153.881 5.69531C155.014 5.69531 156.031 5.92727 156.902 6.36388V6.30658L156.899 6.30385ZM158.411 11.1257C158.034 10.4572 157.54 9.93595 156.899 9.58666C156.261 9.23736 155.592 9.03543 154.866 9.03543C154.14 9.03543 153.472 9.21008 152.861 9.55937C152.252 9.90866 151.758 10.4299 151.379 11.0984C151.002 11.767 150.797 12.5802 150.797 13.508C150.797 14.4358 150.999 15.2518 151.379 15.9176C151.755 16.6135 152.249 17.1374 152.891 17.514C153.499 17.8906 154.168 18.0652 154.866 18.0652C155.565 18.0652 156.261 17.8906 156.899 17.514C157.538 17.1647 158.032 16.6435 158.411 15.9749C158.788 15.3063 158.962 14.4931 158.962 13.5353C158.962 12.5775 158.788 11.7916 158.411 11.1257Z" fill="white"/>
<path d="M172.82 0.729291V2.55762H168.113V5.46112H171.715V7.26217H168.113V12.024H165.848V0.75658H172.82V0.726562V0.729291Z" fill="white"/>
<path d="M181.185 11.9967L178.746 8.19265L176.538 11.9967H173.981L177.526 6.30428L173.924 0.699219H176.538L178.978 4.47322L181.185 0.699219H183.742L180.197 6.36159L183.8 11.9667H181.185V11.9967Z" fill="white"/>
<defs>
<linearGradient id="paint0_linear_1_347" x1="65.4817" y1="-12.3937" x2="35.3114" y2="20.8956" gradientUnits="userSpaceOnUse">
<stop stop-color="white"/>
<stop offset="0.25" stop-color="white"/>
<stop offset="0.73" stop-color="white"/>
<stop offset="0.98" stop-color="#97B0D9"/>
</linearGradient>
<linearGradient id="paint1_linear_1_347" x1="10.2443" y1="53.5024" x2="26.5028" y2="11.6227" gradientUnits="userSpaceOnUse">
<stop stop-color="white"/>
<stop offset="0.25" stop-color="white"/>
<stop offset="0.73" stop-color="white"/>
<stop offset="0.98" stop-color="#97B0D9"/>
</linearGradient>
<linearGradient id="paint2_linear_1_347" x1="45.4586" y1="-20.5588" x2="28.1276" y2="28.8416" gradientUnits="userSpaceOnUse">
<stop stop-color="white"/>
<stop offset="0.25" stop-color="white"/>
<stop offset="0.73" stop-color="white"/>
<stop offset="0.98" stop-color="#C2BBD9"/>
</linearGradient>
</defs>
</svg>
