<?xml version="1.0" encoding="UTF-8"?>
<svg id="Layer_1" data-name="Layer 1" xmlns="http://www.w3.org/2000/svg" width="761.31" height="130.81" viewBox="0 0 761.31 130.81">
  <defs>
    <style>
      .cls-1 {
        fill: #ef4423;
        stroke-width: 0px;
      }
    </style>
  </defs>
  <path class="cls-1" d="M668.62,20.21c5.71,0,10.53-4.75,10.53-10.38s-4.82-10.38-10.53-10.38-10.67,4.66-10.67,10.38,4.79,10.38,10.67,10.38"/>
  <path class="cls-1" d="M759.35,71.66c-12.09,9.19-24.38,13.66-37.57,13.66s-19.05-4.73-19.05-15.34c0-15.5,7.45-27.19,17.33-27.19,4.45,0,6.91,2.3,6.91,6.48,0,2.17-.53,4.23-1.59,6.1l-.8,1.42h18.24l.26-.55c1.13-2.4,1.8-5.55,1.8-8.41,0-11.69-9.12-19.24-23.24-19.24-21.75,0-37.54,18.31-37.54,43.53,0,3.65.47,7,1.4,10-3.88,1.64-7.73,2.48-11.45,2.48-3.26,0-5.39-.66-6.51-2.01-1.2-1.44-1.41-3.89-.7-7.72l8.06-44.14h-17.94l-8.57,47.95c-.18,1.05-.33,2.13-.42,3.28-4.67,2.01-9.57,3.08-14.21,3.08-5.63,0-9.27-1.09-11.13-3.31-1.77-2.12-2.15-5.48-1.23-10.56l4.85-25.09h18.87l2.77-15.34h-18.71l3.72-19.58h-17.95l-3.71,19.58h-9.59l-2.61,15.34h9.27l-4.94,26.3c-.57,3.07-.83,5.97-.78,8.63-4.46,2.36-9.14,3.6-13.57,3.6-3.11,0-5.17-.67-6.32-2.04-1.27-1.52-1.56-4.03-.89-7.7l7.76-44.13h-13.85l-.28.31c-.94,1.04-1.98,2.27-2.86,3.73-4.96-4-11.61-6.19-18.87-6.19-24.47,0-37.68,21.99-37.68,42.68,0,4.09.51,7.87,1.52,11.26-3.39,1.39-6.67,2.07-10,2.07s-5.13-.58-6.16-1.82c-1.15-1.37-1.34-3.85-.61-7.78l3.28-18.72c1.68-9.59.51-16.87-3.48-21.63-3.38-4.03-8.58-6.06-15.46-6.06-9.27,0-17.78,4.32-23.17,11.65-2.35-7.64-8.71-11.65-18.55-11.65-7.84,0-15.46,3.53-20.71,9.43l1.43-7.29h-17.11l-9.05,51.9c-5.59,2.7-11.59,3.79-16.92,3.1l-.11-.02c6.08-9.71,9.29-21.19,9.29-33.32,0-24.36-16.63-40.1-42.38-40.1-31.93,0-56.95,26.54-56.95,60.41,0,3.4.36,6.77,1.07,10.04-3.17,1.25-6.24,1.85-9.34,1.85s-5.22-.58-6.27-1.82c-1.14-1.36-1.34-3.76-.65-7.77l3.28-18.72c1.64-9.36.45-16.51-3.53-21.26-3.58-4.27-9.25-6.43-16.84-6.43-9.05,0-17.43,3.58-23.11,9.72l1.39-7.58h-16.95l-8.95,51.39c-3.79,1.65-7.57,2.48-11.25,2.48-3.1,0-5.17-.67-6.31-2.04-1.27-1.52-1.56-4.03-.89-7.7l7.77-44.13h-13.85l-.29.31c-.94,1.04-1.98,2.28-2.85,3.73-4.96-4-11.61-6.19-18.87-6.19-24.47,0-37.68,21.99-37.68,42.68,0,3.92.48,7.58,1.42,10.88-3.54,1.33-7.26,2.05-11.06,2.17-3.03.06-5.06-.54-6.14-1.82-1.31-1.54-1.55-4.33-.76-8.79L123.14,0h-18.08l-13.28,76.52c-.04.22-.07.44-.1.65-7.98,4.69-17.29,7.85-25.27,8.65,9.67-6.78,14.11-20.03,14.11-30.43,0-13.35-7.76-26.81-25.1-26.81-8.58,0-15.84,3.15-22.11,9.61l1.23-7.47h-16.93L0,130.81h17.79l12.56-70.71c3.78-9.62,11.14-15.6,19.23-15.6,7.66,0,12.05,5.33,12.05,14.63,0,13.72-9.71,25.77-20.77,25.77-2.35,0-5.01-.47-6.77-1.21l-1.04-.44-3.17,13.82.84.26c6.53,2.02,14.56,3.05,23.86,3.05,15.54,0,29.65-2.93,38.94-8.07,3.1,5.36,9.12,8.07,17.93,8.07,8.31,0,16.45-2.01,24.22-5.98,4.48,3.91,10.52,5.98,17.51,5.98,9.04,0,16.69-3.47,22.73-10.31,3.11,6.4,10.44,10.31,19.56,10.31,4.46,0,9.15-.74,13.6-2.15h17.07l6.13-35.17c2.14-9.12,10.24-18.56,20.07-18.56,3.19,0,5.53.87,6.96,2.59,1.93,2.31,2.4,6.31,1.38,11.86l-3.57,19.73c-1.27,7.27-.44,12.53,2.55,16.1,3.16,3.76,8.71,5.59,16.96,5.59,7.19,0,14.18-1.52,20.78-4.53,7.13,10.58,19.78,16.38,35.72,16.38,13.12,0,25.81-4.54,35.82-12.79,1.88.66,3.84,1.13,5.83,1.38,7.16.93,15.27-.04,21.76-2.6h16.67l6.12-35.45c2.17-8.83,9.78-18.29,17.65-18.29,2.52,0,4.34.7,5.55,2.13,1.9,2.24,2.36,6.4,1.37,12.34l-6.76,39.26h18.08l5.7-33.93c1.77-9.56,9.29-19.8,17.63-19.8,2.5,0,4.4.75,5.63,2.21,1.95,2.31,2.43,6.43,1.43,12.25l-3.42,19.72c-1.29,7.24-.45,12.49,2.56,16.08,3.16,3.78,8.66,5.61,16.8,5.61s15.91-1.91,23.53-5.83c4.47,3.81,10.45,5.83,17.35,5.83,9.04,0,16.68-3.47,22.73-10.31,3.11,6.4,10.45,10.31,19.56,10.31s17.59-3.1,22.56-6.15c3.97,4.14,10.35,6.15,19.45,6.15,12.24,0,20.55-2.98,24.74-4.97,3.2,3.34,8.49,4.97,16.13,4.97,11.62,0,20.42-3.52,25.91-6.6,5.74,4.38,14.08,6.6,24.82,6.6,13.36,0,26.56-4.14,39.24-12.3l.35-.22,3.4-17.71-1.99,1.51.03.04h0ZM174.99,73.64c-4.79,7.43-10.96,11.68-16.96,11.68-8.28,0-12.47-5.06-12.47-15.05,0-13.12,7.38-27.06,21.05-27.06,5.6,0,10,2.35,12.83,4.46l-4.44,25.96h0ZM334.6,96.5c-14.92,0-25.34-10.51-25.34-25.55,0-25.28,19.5-42.89,36.99-42.89s25.64,13.05,25.64,25.17c0,20.43-15.95,43.28-37.29,43.28M564.27,73.65c-4.79,7.43-10.96,11.68-16.96,11.68-8.28,0-12.47-5.06-12.47-15.05,0-13.12,7.37-27.06,21.05-27.06,5.59,0,9.99,2.35,12.82,4.46l-4.44,25.96h0Z"/>
</svg>